<svg xmlns="http://www.w3.org/2000/svg" version="1.1" xmlns:xlink="http://www.w3.org/1999/xlink" xmlns:svgjs="http://svgjs.com/svgjs" width="1440" height="560" preserveAspectRatio="none" viewBox="0 0 1440 560"><g mask="url(&quot;#SvgjsMask1981&quot;)" fill="none"><rect width="1440" height="560" x="0" y="0" fill="url(#SvgjsLinearGradient1982)"></rect><path d="M1351.53 405.57a10.45 10.45 0 1 0 13.26 16.16z" fill="rgba(228, 121, 17, 1)"></path><path d="M873.35 281.39L905.98 281.39L905.98 316.71L873.35 316.71z" stroke="rgba(21, 90, 215, 1)"></path><path d="M1138.73 390.63a53.12 53.12 0 1 0 105.84 9.12z" fill="rgba(228, 121, 17, 1)"></path><path d="M1257.93 359.56 a32.87 32.87 0 1 0 65.74 0 a32.87 32.87 0 1 0 -65.74 0z" stroke="rgba(244, 240, 28, 1)"></path><path d="M1367.12 350.44a31.94 31.94 0 1 0 3.97 63.75z" fill="rgba(228, 121, 17, 1)"></path><path d="M1368.1 525.12a53.45 53.45 0 1 0-46.45-96.28z" stroke="rgba(228, 121, 17, 1)"></path><path d="M1129.08 517.38L1150.36 517.38L1150.36 555.84L1129.08 555.84z" stroke="rgba(21, 90, 215, 1)"></path><path d="M592.81 13.17a40.04 40.04 0 1 0 49.92 62.61z" stroke="rgba(244, 240, 28, 1)"></path><path d="M131.84 279.12 a53.11 53.11 0 1 0 106.22 0 a53.11 53.11 0 1 0 -106.22 0z" fill="rgba(228, 121, 17, 1)"></path><path d="M339.89 56.91L391.37 56.91L391.37 108.39L339.89 108.39z" fill="rgba(21, 90, 215, 1)"></path><path d="M425.24 52.25L464.66 52.25L464.66 91.67L425.24 91.67z" stroke="rgba(228, 121, 17, 1)"></path><path d="M305.74 414.64 a19.21 19.21 0 1 0 38.42 0 a19.21 19.21 0 1 0 -38.42 0z" stroke="rgba(244, 240, 28, 1)"></path><path d="M699.81 583.4a50.45 50.45 0 1 0-75.54-66.89z" stroke="rgba(228, 121, 17, 1)"></path><path d="M609.61 491.07 a5.87 5.87 0 1 0 11.74 0 a5.87 5.87 0 1 0 -11.74 0z" stroke="rgba(228, 121, 17, 1)"></path><path d="M-21.03 499.66 a22.37 22.37 0 1 0 44.74 0 a22.37 22.37 0 1 0 -44.74 0z" fill="rgba(244, 240, 28, 1)"></path><path d="M713.29 203.75L749.39 203.75L749.39 232.72L713.29 232.72z" stroke="rgba(21, 90, 215, 1)"></path><path d="M962.33 396.49 a40.53 40.53 0 1 0 81.06 0 a40.53 40.53 0 1 0 -81.06 0z" stroke="rgba(21, 90, 215, 1)"></path><path d="M232.79 61.16 a6.18 6.18 0 1 0 12.36 0 a6.18 6.18 0 1 0 -12.36 0z" fill="rgba(244, 240, 28, 1)"></path><path d="M625.07 131.58 a7.61 7.61 0 1 0 15.22 0 a7.61 7.61 0 1 0 -15.22 0z" fill="rgba(244, 240, 28, 1)"></path><path d="M1366.6 397.41 a26.02 26.02 0 1 0 52.04 0 a26.02 26.02 0 1 0 -52.04 0z" stroke="rgba(228, 121, 17, 1)"></path><path d="M711.2 157.43L714.15 157.43L714.15 160.38L711.2 160.38z" fill="rgba(228, 121, 17, 1)"></path><path d="M1152.3 81.98L1191.44 81.98L1191.44 84.06L1152.3 84.06z" stroke="rgba(228, 121, 17, 1)"></path><path d="M799.1 408.65L819.97 408.65L819.97 427.16L799.1 427.16z" stroke="rgba(21, 90, 215, 1)"></path><path d="M462.36 385.39a24.52 24.52 0 1 0 45.76 17.64z" fill="rgba(228, 121, 17, 1)"></path><path d="M1261.88 511.2 a29.06 29.06 0 1 0 58.12 0 a29.06 29.06 0 1 0 -58.12 0z" stroke="rgba(228, 121, 17, 1)"></path><path d="M472.66 236.18L497.75 236.18L497.75 288.98L472.66 288.98z" fill="rgba(228, 121, 17, 1)"></path><path d="M564.8 150.61a24.78 24.78 0 1 0 38.58 31.1z" stroke="rgba(228, 121, 17, 1)"></path><path d="M174.66 234.41L183.14 234.41L183.14 242.89L174.66 242.89z" fill="rgba(228, 121, 17, 1)"></path><path d="M722.37 316.13L759.17 316.13L759.17 352.93L722.37 352.93z" fill="rgba(244, 240, 28, 1)"></path><path d="M1154.64 135.92a16.76 16.76 0 1 0-31.19 12.28z" stroke="rgba(244, 240, 28, 1)"></path><path d="M697.83 399.39a20.41 20.41 0 1 0-39.61 9.88z" stroke="rgba(244, 240, 28, 1)"></path><path d="M916.73 181.21L971.37 181.21L971.37 220.54L916.73 220.54z" stroke="rgba(21, 90, 215, 1)"></path><path d="M269.69 530.06 a21.29 21.29 0 1 0 42.58 0 a21.29 21.29 0 1 0 -42.58 0z" stroke="rgba(228, 121, 17, 1)"></path></g><defs><mask id="SvgjsMask1981"><rect width="1440" height="560" fill="#ffffff"></rect></mask><linearGradient x1="50%" y1="100%" x2="50%" y2="0%" gradientUnits="userSpaceOnUse" id="SvgjsLinearGradient1982"><stop stop-color="#0e2a47" offset="0"></stop><stop stop-color="rgba(53, 161, 84, 1)" offset="1"></stop></linearGradient></defs></svg>